<svg width="58" height="59" viewBox="0 0 58 59" fill="none" xmlns="http://www.w3.org/2000/svg">
<g clip-path="url(#clip0_17_244)" filter="url(#filter0_d_17_244)">
<rect x="4" y="0.724121" width="50" height="50" rx="19" fill="#4D8DFF"/>
<path d="M29.4821 25.367L30.6518 25.9116L32.3929 25.3938V24.1795C32.3929 22.117 30.6518 20.4652 28.5714 20.4652C26.5 20.4652 24.75 22.108 24.75 24.1527V29.6884C24.75 30.1973 24.3393 30.5991 23.8393 30.5991C23.3393 30.5991 22.9286 30.1973 22.9286 29.6884V27.3491H20C20 29.6973 20 29.7241 20 29.7241C20 31.8402 21.7143 33.5545 23.8304 33.5545C25.9286 33.5545 27.6607 31.867 27.6607 29.7777V24.3134C27.6607 23.8134 28.0714 23.4027 28.5714 23.4027C29.0714 23.4027 29.4821 23.8134 29.4821 24.3134V25.367ZM34.2143 27.3491V29.8045C34.2143 30.3045 33.8036 30.7063 33.3036 30.7063C32.8036 30.7063 32.3929 30.3045 32.3929 29.8045V27.3938L30.6518 27.9116L29.4821 27.367V29.7598C29.4821 31.858 31.2054 33.5545 33.3125 33.5545C35.4286 33.5545 37.1429 31.8402 37.1429 29.7241C37.1429 29.7241 37.1429 29.6973 37.1429 27.3491H34.2143Z" fill="white"/>
</g>
<defs>
<filter id="filter0_d_17_244" x="0" y="0.724121" width="58" height="58" filterUnits="userSpaceOnUse" color-interpolation-filters="sRGB">
<feFlood flood-opacity="0" result="BackgroundImageFix"/>
<feColorMatrix in="SourceAlpha" type="matrix" values="0 0 0 0 0 0 0 0 0 0 0 0 0 0 0 0 0 0 127 0" result="hardAlpha"/>
<feOffset dy="4"/>
<feGaussianBlur stdDeviation="2"/>
<feColorMatrix type="matrix" values="0 0 0 0 0 0 0 0 0 0 0 0 0 0 0 0 0 0 0.25 0"/>
<feBlend mode="normal" in2="BackgroundImageFix" result="effect1_dropShadow_17_244"/>
<feBlend mode="normal" in="SourceGraphic" in2="effect1_dropShadow_17_244" result="shape"/>
</filter>
<clipPath id="clip0_17_244">
<rect width="50" height="50" fill="white" transform="translate(4 0.724121)"/>
</clipPath>
</defs>
</svg>
