<svg width="58" height="59" viewBox="0 0 58 59" fill="none" xmlns="http://www.w3.org/2000/svg">
<g clip-path="url(#clip0_17_251)" filter="url(#filter0_d_17_251)">
<rect x="4" y="0.724121" width="50" height="50" rx="19" fill="#740A76"/>
<path d="M29 33.867C29.1429 33.867 29.2857 33.8134 29.3929 33.7063L34.9554 28.3491C35.0357 28.2688 37 26.4741 37 24.3313C37 21.7152 35.4018 20.1527 32.7321 20.1527C31.1696 20.1527 29.7054 21.3848 29 22.0813C28.2946 21.3848 26.8304 20.1527 25.2679 20.1527C22.5982 20.1527 21 21.7152 21 24.3313C21 26.4741 22.9643 28.2688 23.0357 28.3313L28.6071 33.7063C28.7143 33.8134 28.8571 33.867 29 33.867Z" fill="white"/>
</g>
<defs>
<filter id="filter0_d_17_251" x="0" y="0.724121" width="58" height="58" filterUnits="userSpaceOnUse" color-interpolation-filters="sRGB">
<feFlood flood-opacity="0" result="BackgroundImageFix"/>
<feColorMatrix in="SourceAlpha" type="matrix" values="0 0 0 0 0 0 0 0 0 0 0 0 0 0 0 0 0 0 127 0" result="hardAlpha"/>
<feOffset dy="4"/>
<feGaussianBlur stdDeviation="2"/>
<feColorMatrix type="matrix" values="0 0 0 0 0 0 0 0 0 0 0 0 0 0 0 0 0 0 0.25 0"/>
<feBlend mode="normal" in2="BackgroundImageFix" result="effect1_dropShadow_17_251"/>
<feBlend mode="normal" in="SourceGraphic" in2="effect1_dropShadow_17_251" result="shape"/>
</filter>
<clipPath id="clip0_17_251">
<rect width="50" height="50" fill="white" transform="translate(4 0.724121)"/>
</clipPath>
</defs>
</svg>
