<svg width="58" height="59" viewBox="0 0 58 59" fill="none" xmlns="http://www.w3.org/2000/svg">
<g clip-path="url(#clip0_17_258)" filter="url(#filter0_d_17_258)">
<rect x="4" y="0.724121" width="50" height="50" rx="19" fill="#F03E3D"/>
<path d="M34.5714 20.1527H35.4286C35.5893 20.1527 35.7143 20.0277 35.7143 19.867V19.2955C35.7143 19.1348 35.5893 19.0098 35.4286 19.0098H22.2857C22.125 19.0098 22 19.1348 22 19.2955V19.867C22 20.0277 22.125 20.1527 22.2857 20.1527H23.1429C23.1429 23.4563 24.7232 25.8491 26.4732 27.0098C24.7232 28.1705 23.1429 30.5634 23.1429 33.867H22.2857C22.125 33.867 22 33.992 22 34.1527V34.7241C22 34.8848 22.125 35.0098 22.2857 35.0098H35.4286C35.5893 35.0098 35.7143 34.8848 35.7143 34.7241V34.1527C35.7143 33.992 35.5893 33.867 35.4286 33.867H34.5714C34.5714 30.5634 32.9911 28.1705 31.2411 27.0098C32.9911 25.8491 34.5714 23.4563 34.5714 20.1527ZM33.4286 20.1527C33.4286 21.4563 33.1339 22.608 32.6696 23.5813H25.0446C24.5804 22.608 24.2857 21.4563 24.2857 20.1527H33.4286ZM32.9196 31.0098H24.7946C25.4554 29.2866 26.6429 28.0634 27.8304 27.5813H29.8839C31.0714 28.0634 32.2589 29.2866 32.9196 31.0098Z" fill="white"/>
</g>
<defs>
<filter id="filter0_d_17_258" x="0" y="0.724121" width="58" height="58" filterUnits="userSpaceOnUse" color-interpolation-filters="sRGB">
<feFlood flood-opacity="0" result="BackgroundImageFix"/>
<feColorMatrix in="SourceAlpha" type="matrix" values="0 0 0 0 0 0 0 0 0 0 0 0 0 0 0 0 0 0 127 0" result="hardAlpha"/>
<feOffset dy="4"/>
<feGaussianBlur stdDeviation="2"/>
<feColorMatrix type="matrix" values="0 0 0 0 0 0 0 0 0 0 0 0 0 0 0 0 0 0 0.25 0"/>
<feBlend mode="normal" in2="BackgroundImageFix" result="effect1_dropShadow_17_258"/>
<feBlend mode="normal" in="SourceGraphic" in2="effect1_dropShadow_17_258" result="shape"/>
</filter>
<clipPath id="clip0_17_258">
<rect width="50" height="50" fill="white" transform="translate(4 0.724121)"/>
</clipPath>
</defs>
</svg>
