<svg width="540" height="475" viewBox="0 0 540 475" fill="none" xmlns="http://www.w3.org/2000/svg">
<path d="M79.0544 428.75C184.46 489.344 355.368 489.344 460.774 428.75C566.18 368.157 566.18 269.913 460.774 209.307C355.368 148.7 184.508 148.713 79.0544 209.307C-26.3997 269.9 -26.3033 368.157 79.0544 428.75Z" fill="#F5F5F5"/>
<path d="M49.6717 329.379L15.4082 307.617V226.746L49.6717 248.522V329.379Z" fill="#E0E0E0"/>
<path d="M49.6719 248.522L98.6267 217.423V298.28L49.6719 329.379V248.522Z" fill="#EBEBEB"/>
<path d="M98.6265 217.423L49.6717 248.522L15.4082 226.746L64.363 195.647L98.6265 217.423Z" fill="#F5F5F5"/>
<path d="M54.577 251.626L93.7336 226.746L94.6375 227.317V257.275L55.4688 282.154L54.5649 281.584L54.577 251.626Z" fill="#E0E0E0"/>
<path d="M55.4688 252.209L94.6374 227.316V257.275L55.4688 282.154V252.209Z" fill="#F5F5F5"/>
<path d="M70.8228 247.527L77.4875 243.297C78.3432 242.74 79.0422 242.992 79.0422 243.854C78.9801 244.382 78.8074 244.887 78.5376 245.329C78.2678 245.77 77.9083 246.137 77.4875 246.4L70.8228 250.631C69.9551 251.188 69.2561 250.936 69.2561 250.074C69.3186 249.544 69.4928 249.038 69.7649 248.596C70.0369 248.154 70.3992 247.788 70.8228 247.527Z" fill="#E0E0E0"/>
<path d="M53.6729 289.527L92.8294 264.648V294.607L93.7333 295.177L54.5647 320.056L53.6729 319.486V289.527Z" fill="#E0E0E0"/>
<path d="M54.5649 290.098L93.7336 265.219V295.178L54.5649 320.057V290.098Z" fill="#F5F5F5"/>
<path d="M69.9191 285.43L76.644 281.213C77.5118 280.656 78.2108 280.908 78.2108 281.77C78.1483 282.299 77.9741 282.805 77.702 283.248C77.43 283.69 77.0676 284.056 76.644 284.316L69.9793 288.547C69.1116 289.104 68.4126 288.852 68.4126 287.99C68.4668 287.464 68.631 286.959 68.8924 286.515C69.1538 286.071 69.5052 285.699 69.9191 285.43Z" fill="#E0E0E0"/>
<path d="M49.6717 243.854L15.4082 222.078V141.22L49.6717 162.983V243.854Z" fill="#E0E0E0"/>
<path d="M49.6719 162.983L98.6267 131.884V212.755L49.6719 243.854V162.983Z" fill="#EBEBEB"/>
<path d="M98.6265 131.884L49.6717 162.983L15.4082 141.22L64.363 110.121L98.6265 131.884Z" fill="#F5F5F5"/>
<path d="M54.5649 166.099L93.7336 141.22L94.6375 141.79V171.749L55.4688 196.628L54.5649 196.045V166.099Z" fill="#E0E0E0"/>
<path d="M70.8228 161.988L77.4755 157.758C78.3432 157.214 79.0422 157.466 79.0422 158.328C78.9779 158.857 78.803 159.362 78.5311 159.804C78.2592 160.246 77.8979 160.612 77.4755 160.874L70.8228 165.105C69.9551 165.649 69.2561 165.41 69.2561 164.548C69.3195 164.017 69.494 163.509 69.7659 163.065C70.0378 162.621 70.3996 162.252 70.8228 161.988Z" fill="#E0E0E0"/>
<path d="M53.6729 204.002L92.8294 179.123V209.068L93.7333 209.638L54.5647 234.518L53.6729 233.947V204.002Z" fill="#E0E0E0"/>
<path d="M54.5649 204.572L93.7336 179.693V209.638L54.5649 234.517V204.572Z" fill="#F5F5F5"/>
<path d="M69.9188 199.891L76.6438 195.66C77.4994 195.117 78.2105 195.369 78.2105 196.231C78.1427 196.758 77.9663 197.262 77.6948 197.703C77.4232 198.144 77.0638 198.512 76.6438 198.777L69.9188 202.968C69.0511 203.511 68.3521 203.259 68.3521 202.411C68.4207 201.887 68.5977 201.387 68.8693 200.95C69.1409 200.514 69.4999 200.151 69.9188 199.891Z" fill="#E0E0E0"/>
<path d="M54.5649 166.099L93.7336 141.22V171.165L54.5649 196.045V166.099Z" fill="#E0E0E0"/>
<path d="M113.318 156.021L91.8774 142.401V168.792L113.318 182.398V156.021Z" fill="#E0E0E0"/>
<path d="M69.2561 200.315V162.983L77.6563 157.625L79.0422 159.88L103.52 144.324V178.539L69.2561 200.315Z" fill="#EBEBEB"/>
<path d="M69.2561 200.315L71.7026 167.651L105.966 145.888L103.52 178.539L69.2561 200.315Z" fill="#F5F5F5"/>
<path d="M74.1492 180.9L55.4688 169.03V195.421L74.1492 207.277V180.9Z" fill="#EBEBEB"/>
<path d="M74.1492 178.539L113.318 153.66V183.605L74.1492 208.484V178.539Z" fill="#F5F5F5"/>
<path d="M89.5033 173.858L96.1559 169.627C97.0237 169.084 97.7227 169.335 97.7227 170.198C97.6575 170.726 97.4821 171.231 97.2104 171.673C96.9386 172.114 96.5777 172.481 96.1559 172.744L89.5033 176.974C88.6355 177.518 87.9365 177.266 87.9365 176.417C88 175.886 88.1745 175.379 88.4463 174.935C88.7182 174.491 89.08 174.122 89.5033 173.858Z" fill="#E0E0E0"/>
<path d="M74.1493 178.539L72.8477 177.716V207.662L74.1493 208.484V178.539Z" fill="#E0E0E0"/>
<path d="M72.8477 177.717L112.004 152.824L113.318 153.66L74.1493 178.539L72.8477 177.717Z" fill="#EBEBEB"/>
<path d="M454.471 280.39L420.195 258.614V177.756L454.471 199.519V280.39Z" fill="#E0E0E0"/>
<path d="M454.471 199.52L503.425 168.421V249.291L454.471 280.39V199.52Z" fill="#EBEBEB"/>
<path d="M503.426 168.42L454.471 199.519L420.195 177.757L469.162 146.644L503.426 168.42Z" fill="#F5F5F5"/>
<path d="M459.364 202.636L498.532 177.756L499.436 178.327L499.424 208.272L460.268 233.151L459.364 232.581V202.636Z" fill="#E0E0E0"/>
<path d="M460.268 203.206L499.436 178.327L499.424 208.273L460.268 233.152V203.206Z" fill="#F5F5F5"/>
<path d="M475.622 198.525L482.275 194.294C483.142 193.751 483.841 194.003 483.841 194.851C483.778 195.382 483.603 195.89 483.332 196.334C483.06 196.778 482.698 197.147 482.275 197.411L475.622 201.642C474.754 202.185 474.055 201.933 474.055 201.085C474.119 200.554 474.293 200.046 474.565 199.602C474.837 199.158 475.199 198.789 475.622 198.525Z" fill="#E0E0E0"/>
<path d="M458.46 240.538L497.629 215.646V245.604L498.533 246.175L459.364 271.054L458.46 270.483V240.538Z" fill="#E0E0E0"/>
<path d="M459.364 241.108L498.532 216.229V246.174L459.364 271.053V241.108Z" fill="#F5F5F5"/>
<path d="M474.718 236.427L481.383 232.196C482.238 231.652 482.937 231.904 482.937 232.753C482.874 233.282 482.7 233.788 482.431 234.232C482.161 234.676 481.803 235.045 481.383 235.313L474.718 239.543C473.85 240.087 473.151 239.835 473.151 238.973C473.217 238.444 473.392 237.94 473.664 237.498C473.935 237.056 474.296 236.69 474.718 236.427Z" fill="#E0E0E0"/>
<path d="M128.467 364.908C128.467 364.908 128.6 343.875 116.548 328.107C105.882 314.142 100.205 305.283 103.568 301.198C106.93 297.114 114.161 296.132 123.911 307.432C133.661 318.731 134.421 350.029 133.071 357.11L128.467 364.908Z" fill="#02897A"/>
<path opacity="0.2" d="M128.467 364.908C128.467 364.908 128.6 343.875 116.548 328.107C105.882 314.142 100.205 305.283 103.568 301.198C106.93 297.114 114.161 296.132 123.911 307.432C133.661 318.731 134.421 350.029 133.071 357.11L128.467 364.908Z" fill="black"/>
<path d="M130.492 342.297C130.354 342.297 130.221 342.246 130.114 342.152C130.006 342.058 129.931 341.927 129.901 341.779C125.683 320.07 114.86 308.068 108.774 302.843C108.648 302.735 108.566 302.577 108.546 302.403C108.525 302.229 108.569 302.053 108.666 301.914C108.766 301.775 108.911 301.684 109.071 301.662C109.231 301.639 109.393 301.687 109.521 301.795C115.728 307.1 126.78 319.38 131.082 341.501C131.1 341.585 131.102 341.673 131.088 341.758C131.075 341.844 131.046 341.925 131.003 341.998C130.961 342.071 130.905 342.134 130.84 342.183C130.775 342.232 130.701 342.266 130.624 342.283L130.492 342.297Z" fill="white"/>
<path d="M128.009 372.72L123.104 375.836C122.581 374.263 121.698 372.864 120.542 371.775C119.385 370.686 117.993 369.942 116.5 369.616C111.136 368.29 105.568 368.516 101.808 363.397C98.0481 358.278 102.628 352.708 101.808 348.941C100.989 345.175 100.458 344.087 93.7335 340.321C87.0086 336.555 84.3572 330.308 89.419 326.078C94.4807 321.847 102.676 324.951 107.641 328.73C112.052 332.046 116.246 332.921 121.176 333.597C126.105 334.274 134.131 337.284 132.902 349.883C132.097 357.681 130.455 365.347 128.009 372.72Z" fill="#02897A"/>
<path d="M109.184 356.169C109.056 356.168 108.931 356.122 108.827 356.039C108.723 355.956 108.646 355.839 108.606 355.705C108.56 355.536 108.576 355.354 108.65 355.198C108.725 355.042 108.851 354.924 109.003 354.869C109.437 354.723 119.85 351.09 124.273 354.989C124.383 355.103 124.45 355.258 124.46 355.424C124.471 355.589 124.425 355.753 124.331 355.884C124.237 356.014 124.102 356.1 123.953 356.126C123.804 356.152 123.652 356.115 123.526 356.023C119.621 352.575 109.473 356.103 109.365 356.142L109.184 356.169Z" fill="white"/>
<path d="M128.551 371.711C128.405 371.712 128.263 371.653 128.154 371.545C128.045 371.437 127.976 371.288 127.961 371.128C125.273 343.198 94.6977 329.95 94.3964 329.817C94.3217 329.786 94.2533 329.739 94.1952 329.679C94.1371 329.619 94.0904 329.547 94.0579 329.466C94.0254 329.386 94.0077 329.3 94.0058 329.212C94.0039 329.124 94.0179 329.037 94.0469 328.955C94.1062 328.794 94.2192 328.665 94.3628 328.593C94.5063 328.522 94.6694 328.514 94.8182 328.57C95.1436 328.716 126.394 342.243 129.154 371.008C129.171 371.182 129.125 371.357 129.025 371.493C128.926 371.63 128.782 371.718 128.624 371.738L128.551 371.711Z" fill="white"/>
<path d="M428.318 354.379C428.451 353.914 433.621 324.632 428.318 303.864C423.498 284.82 417.207 277.791 408.24 276.24C399.273 274.688 395.381 281.796 400.141 291.425C404.902 301.053 416.363 313.824 419.171 335.335C420.376 344.193 421.292 351.885 421.292 351.885L428.318 354.379Z" fill="#02897A"/>
<path opacity="0.2" d="M428.318 354.379C428.451 353.914 433.621 324.632 428.318 303.864C423.498 284.82 417.207 277.791 408.24 276.24C399.273 274.688 395.381 281.796 400.141 291.425C404.902 301.053 416.363 313.824 419.171 335.335C420.376 344.193 421.292 351.885 421.292 351.885L428.318 354.379Z" fill="black"/>
<path d="M425.293 337.562C425.214 337.557 425.136 337.535 425.065 337.497C424.994 337.459 424.93 337.406 424.877 337.34C424.825 337.275 424.784 337.199 424.758 337.117C424.733 337.034 424.722 336.947 424.727 336.86C425.932 313.147 418.894 291.982 406.275 281.598C406.147 281.492 406.063 281.335 406.04 281.161C406.018 280.987 406.059 280.81 406.155 280.669C406.252 280.531 406.395 280.441 406.552 280.416C406.71 280.391 406.869 280.434 406.998 280.537C419.93 291.146 427.185 312.789 425.92 336.939C425.91 337.113 425.84 337.275 425.722 337.392C425.605 337.508 425.451 337.57 425.293 337.562Z" fill="white"/>
<path d="M442.19 369.63C441.503 364.179 444.347 356.01 451.108 354.074C457.869 352.137 460.882 347.867 458.448 343.199C456.013 338.531 456.58 334.247 462.714 332.311C468.849 330.375 474.224 327.006 470.693 319.871C468.126 314.712 467.559 311.37 473.85 301.212C479.069 292.777 474.802 287.831 468.27 288.759C461.738 289.687 457.701 298.255 453.615 299.687C449.529 301.119 448.589 293.48 443.202 296.902C437.815 300.323 438.14 309.089 437.972 315.203C437.803 321.317 437.441 322.696 432.572 321.953C427.703 321.211 422.931 322.086 423.039 335.043C423.124 346.156 428.511 359.922 428.511 359.922L442.19 369.63Z" fill="#02897A"/>
<path d="M433.645 361.341H433.585C433.424 361.321 433.276 361.232 433.175 361.093C433.073 360.954 433.025 360.776 433.042 360.598C436.441 327.192 462.497 299.01 469.294 293.295C469.422 293.187 469.584 293.14 469.743 293.164C469.902 293.188 470.047 293.28 470.144 293.421C470.242 293.561 470.284 293.739 470.263 293.914C470.241 294.09 470.158 294.248 470.03 294.356C463.317 299.992 437.598 327.802 434.248 360.744C434.23 360.907 434.159 361.058 434.048 361.168C433.938 361.277 433.794 361.339 433.645 361.341Z" fill="white"/>
<path d="M445.528 325.627C445.406 325.626 445.287 325.586 445.186 325.51C445.085 325.434 445.007 325.328 444.962 325.203C444.91 325.036 444.919 324.853 444.986 324.693C445.054 324.532 445.174 324.406 445.323 324.341C455.037 320.362 466.053 322.246 466.523 322.325C466.679 322.354 466.818 322.45 466.911 322.592C467.003 322.733 467.041 322.909 467.017 323.081C466.987 323.252 466.9 323.405 466.773 323.508C466.645 323.611 466.487 323.658 466.33 323.638C466.221 323.638 455.158 321.728 445.745 325.588C445.675 325.614 445.602 325.627 445.528 325.627Z" fill="white"/>
<path d="M436.875 345.705C436.79 345.704 436.707 345.684 436.63 345.645C436.553 345.606 436.485 345.55 436.429 345.48C432.389 340.303 429.651 334.053 428.487 327.351C428.475 327.265 428.479 327.177 428.497 327.092C428.516 327.007 428.55 326.928 428.597 326.857C428.644 326.787 428.704 326.728 428.771 326.683C428.839 326.638 428.915 326.608 428.993 326.595C429.071 326.582 429.151 326.586 429.228 326.607C429.305 326.628 429.378 326.665 429.442 326.717C429.505 326.768 429.559 326.833 429.6 326.908C429.641 326.983 429.668 327.066 429.68 327.152C430.832 333.59 433.467 339.595 437.333 344.591C437.408 344.689 437.457 344.808 437.473 344.935C437.489 345.062 437.472 345.191 437.424 345.308C437.376 345.425 437.299 345.524 437.202 345.594C437.105 345.665 436.991 345.703 436.875 345.705Z" fill="white"/>
<path d="M128.009 167.465V372.732L318.935 251.439L318.923 64.8315L176.964 155.025L172.059 139.469L128.009 167.465Z" fill="#22343D"/>
<path d="M128.009 372.732L137.795 186.124L328.722 64.8315L318.935 251.439L128.009 372.732Z" fill="#E0E0E0"/>
<path d="M128.009 372.732L142.688 189.241L333.615 67.9353L318.935 251.439L128.009 372.732Z" fill="#22343D"/>
<path d="M157.38 186.125V391.405L348.306 270.099V83.4918L206.334 173.686L201.441 158.129L157.38 186.125Z" fill="#F03E3D"/>
<path d="M157.38 391.405L167.166 204.785L358.092 83.4918L348.306 270.099L157.38 391.405Z" fill="#E0E0E0"/>
<path d="M157.38 391.405L172.059 207.901L362.985 86.5948L348.306 270.099L157.38 391.405Z" fill="#F03E3D"/>
<path d="M318.887 456.72C284.611 434.944 252.819 411.272 238.308 383.501L282.418 355.479L318.887 456.72Z" fill="#E0E0E0"/>
<path d="M191.643 207.901V413.168L382.569 291.875V105.267L240.598 195.461L235.705 179.905L191.643 207.901Z" fill="#02897A"/>
<path opacity="0.2" d="M191.643 207.901V413.168L382.569 291.875V105.267L240.598 195.461L235.705 179.905L191.643 207.901Z" fill="black"/>
<path d="M246.648 268.587C246.166 268.587 246.094 267.977 246.094 267.619V92.5622C246.132 91.8831 246.313 91.2231 246.623 90.6341C246.932 90.045 247.362 89.5429 247.877 89.1671L385.679 1.63895C385.867 1.50943 386.083 1.43629 386.305 1.42676C386.787 1.42676 386.86 2.03681 386.86 2.39488V177.451C386.822 178.132 386.641 178.795 386.332 179.386C386.022 179.977 385.592 180.482 385.076 180.86L247.275 268.388C247.084 268.511 246.869 268.579 246.648 268.587Z" fill="white"/>
<path d="M386.233 2.03725C386.243 2.13421 386.243 2.23206 386.233 2.32902V177.385C386.193 177.95 386.04 178.498 385.783 178.989C385.527 179.48 385.174 179.902 384.751 180.223L246.949 267.752L246.708 267.871C246.692 267.775 246.692 267.676 246.708 267.579V92.5229C246.75 91.9605 246.904 91.4154 247.16 90.9269C247.417 90.4383 247.769 90.0186 248.19 89.6981L385.992 2.16987C386.068 2.11137 386.154 2.07074 386.245 2.05052L386.233 2.03725ZM386.317 0.724333C385.989 0.735085 385.669 0.840253 385.389 1.02936L247.588 88.5575C246.982 88.9954 246.478 89.5834 246.116 90.2743C245.754 90.9652 245.544 91.7398 245.503 92.5361V267.593C245.503 268.627 245.973 269.224 246.708 269.224C247.037 269.214 247.357 269.109 247.636 268.919L385.437 181.39C386.046 180.956 386.552 180.368 386.914 179.677C387.277 178.985 387.485 178.209 387.522 177.412V2.35554C387.522 1.32112 387.052 0.711071 386.317 0.724333Z" fill="#02897A"/>
<path opacity="0.7" d="M386.233 2.03725C386.243 2.13421 386.243 2.23206 386.233 2.32902V177.385C386.193 177.95 386.04 178.498 385.783 178.989C385.527 179.48 385.174 179.902 384.751 180.223L246.949 267.752L246.708 267.871C246.692 267.775 246.692 267.676 246.708 267.579V92.5229C246.75 91.9605 246.904 91.4154 247.16 90.9269C247.417 90.4383 247.769 90.0186 248.19 89.6981L385.992 2.16987C386.068 2.11137 386.154 2.07074 386.245 2.05052L386.233 2.03725ZM386.317 0.724333C385.989 0.735085 385.669 0.840253 385.389 1.02936L247.588 88.5575C246.982 88.9954 246.478 89.5834 246.116 90.2743C245.754 90.9652 245.544 91.7398 245.503 92.5361V267.593C245.503 268.627 245.973 269.224 246.708 269.224C247.037 269.214 247.357 269.109 247.636 268.919L385.437 181.39C386.046 180.956 386.552 180.368 386.914 179.677C387.277 178.985 387.485 178.209 387.522 177.412V2.35554C387.522 1.32112 387.052 0.711071 386.317 0.724333Z" fill="white"/>
<path d="M260.182 99.2069L309.137 68.1079V130.306L260.182 161.405V99.2069Z" fill="#02897A"/>
<path opacity="0.8" d="M260.182 99.2069L309.137 68.1079V130.306L260.182 161.405V99.2069Z" fill="#11B5E4"/>
<path d="M301.797 83.6113V102.311L300.255 103.252V97.5363C300.255 94.3799 297.929 93.3057 295.036 95.1359L274.295 108.331C271.415 110.162 269.076 114.206 269.076 117.363V123.079L267.546 124.086V105.427L301.797 83.6113Z" fill="white"/>
<path d="M292.373 131.221C289.866 132.812 287.829 131.141 287.829 127.468V97.5359L281.526 101.302V131.473C281.526 135.133 279.489 139.43 276.982 140.982L272.427 143.873V145.862L296.904 130.306V128.33L292.373 131.221Z" fill="white"/>
<path d="M318.887 65.0446C318.887 66.7687 320.297 67.2594 322.02 66.1719L369.649 35.8686C370.494 35.3415 371.217 34.6062 371.761 33.7204C372.304 32.8346 372.654 31.8223 372.783 30.7628C372.783 29.052 371.373 28.548 369.649 29.6488L322.056 59.8858C321.197 60.4118 320.463 61.1529 319.912 62.0491C319.362 62.9453 319.01 63.9714 318.887 65.0446Z" fill="#455A64"/>
<path d="M318.887 83.6111C318.887 85.3352 320.297 85.8391 322.02 84.7384L369.613 54.5014C370.458 53.9743 371.181 53.239 371.725 52.3532C372.268 51.4674 372.618 50.4551 372.747 49.3956C372.747 47.6848 371.337 47.1808 369.613 48.2816L322.02 78.5186C321.177 79.0444 320.455 79.7775 319.911 80.6609C319.368 81.5443 319.017 82.554 318.887 83.6111Z" fill="#455A64"/>
<path d="M318.887 102.31C318.887 104.034 320.297 104.538 322.02 103.437L369.613 73.1999C370.457 72.6741 371.178 71.9409 371.722 71.0575C372.266 70.1741 372.616 69.1645 372.747 68.1073C372.747 66.3833 371.337 65.8793 369.613 66.9801L322.02 97.2171C321.177 97.7428 320.455 98.476 319.911 99.3594C319.368 100.243 319.017 101.252 318.887 102.31Z" fill="#455A64"/>
<path d="M318.887 120.97C318.887 122.694 320.297 123.198 322.02 122.097L369.613 91.8601C370.457 91.3344 371.178 90.6012 371.722 89.7178C372.266 88.8344 372.616 87.8247 372.747 86.7676C372.747 85.0436 371.337 84.5396 369.613 85.6403L322.02 115.877C321.177 116.403 320.455 117.136 319.911 118.02C319.368 118.903 319.017 119.913 318.887 120.97Z" fill="#455A64"/>
<path d="M260.182 176.961C260.182 178.685 261.58 179.189 263.316 178.089L369.649 110.453C370.494 109.929 371.217 109.196 371.761 108.313C372.304 107.429 372.654 106.418 372.783 105.361C372.783 103.637 371.373 103.146 369.649 104.233L263.316 171.869C262.47 172.392 261.747 173.125 261.203 174.009C260.659 174.892 260.31 175.903 260.182 176.961Z" fill="#455A64"/>
<path d="M260.182 195.62C260.182 197.344 261.58 197.848 263.316 196.747L369.649 129.192C370.495 128.664 371.217 127.929 371.761 127.043C372.305 126.158 372.654 125.145 372.783 124.086C372.783 122.375 371.373 121.871 369.649 122.972L263.316 190.528C262.47 191.051 261.747 191.784 261.203 192.667C260.659 193.551 260.31 194.562 260.182 195.62Z" fill="#455A64"/>
<path d="M260.182 214.293C260.182 216.004 261.58 216.507 263.316 215.407L369.649 147.851C370.495 147.324 371.217 146.589 371.761 145.703C372.305 144.817 372.654 143.805 372.783 142.745C372.783 141.034 371.373 140.53 369.649 141.631L263.316 209.187C262.469 209.712 261.745 210.446 261.201 211.332C260.657 212.219 260.308 213.232 260.182 214.293Z" fill="#455A64"/>
<path d="M191.643 413.168L225.907 248.336L416.833 127.03L382.569 291.875L191.643 413.168Z" fill="#02897A"/>
<path d="M238.356 261.24V383.501L282.418 355.505V233.257L238.356 261.24Z" fill="#02897A"/>
<path opacity="0.2" d="M238.356 261.24V383.501L282.418 355.505V233.257L238.356 261.24Z" fill="black"/>
<path d="M318.971 455.924C315.223 452.848 279.092 422.465 260.725 379.006C241.176 332.801 241.2 278.905 241.2 258.628V257.991L372.18 174.786C372.18 195.25 372.18 249.225 391.813 295.589C409.758 338.027 444.504 368.025 450.012 372.613L318.971 455.924Z" fill="white"/>
<path d="M371.578 175.98C371.578 197.305 371.952 250.246 391.271 295.92C408.613 336.899 441.587 366.367 448.927 372.587L319.008 455.128C313.934 450.924 279.164 421.045 261.279 378.78C241.755 332.708 241.755 278.918 241.755 258.667V258.415L371.53 175.967L371.578 175.98ZM372.735 173.672L240.55 257.659C240.55 276.743 240.188 332.191 260.134 379.337C279.767 425.608 318.887 456.72 318.887 456.72L451.108 372.719C451.108 372.719 411.94 341.607 392.367 295.336C372.41 248.191 372.783 192.743 372.783 173.659L372.735 173.672Z" fill="#02897A"/>
<path opacity="0.7" d="M371.578 175.98C371.578 197.305 371.952 250.246 391.271 295.92C408.613 336.899 441.587 366.367 448.927 372.587L319.008 455.128C313.934 450.924 279.164 421.045 261.279 378.78C241.755 332.708 241.755 278.918 241.755 258.667V258.415L371.53 175.967L371.578 175.98ZM372.735 173.672L240.55 257.659C240.55 276.743 240.188 332.191 260.134 379.337C279.767 425.608 318.887 456.72 318.887 456.72L451.108 372.719C451.108 372.719 411.94 341.607 392.367 295.336C372.41 248.191 372.783 192.743 372.783 173.659L372.735 173.672Z" fill="white"/>
<path d="M357.827 201.84L316.031 228.364C315.194 228.87 314.481 229.592 313.952 230.467C313.423 231.342 313.095 232.345 312.994 233.39C313.054 235.074 314.512 235.552 316.236 234.451L358.044 207.927C358.87 207.425 359.576 206.713 360.102 205.851C360.628 204.988 360.96 203.999 361.069 202.967C360.996 201.217 359.562 200.739 357.827 201.84Z" fill="#455A64"/>
<path d="M358.718 219.943L316.922 246.466C316.096 246.956 315.395 247.667 314.885 248.534C314.375 249.401 314.073 250.396 314.006 251.426C314.138 253.057 315.657 253.495 317.38 252.394L359.188 225.871C360.011 225.383 360.707 224.674 361.211 223.808C361.715 222.943 362.01 221.95 362.069 220.924C361.948 219.279 360.454 218.882 358.718 219.943Z" fill="#455A64"/>
<path d="M360.394 237.541L318.586 264.065C316.862 265.166 315.609 267.354 315.814 268.932C316.019 270.51 317.598 270.921 319.333 269.821L361.141 243.297C362.865 242.196 364.094 240.021 363.877 238.443C363.66 236.865 362.117 236.441 360.394 237.541Z" fill="#455A64"/>
<path d="M362.9 254.609L321.092 281.133C319.369 282.234 318.176 284.382 318.465 285.92C318.754 287.459 320.393 287.804 322.081 286.703L363.877 260.179C365.612 259.078 366.769 256.943 366.48 255.405C366.191 253.867 364.684 253.508 362.9 254.609Z" fill="#455A64"/>
<path d="M366.299 271.107L324.491 297.631C322.768 298.732 321.647 300.827 322.081 302.299C322.515 303.771 324.166 304.103 325.889 303.002L367.697 276.478C369.433 275.377 370.517 273.295 370.108 271.81C369.698 270.325 368.023 270.006 366.299 271.107Z" fill="#455A64"/>
<path d="M370.71 287.008L268.824 351.739C267.1 352.84 266.052 354.882 266.522 356.301C266.992 357.72 268.787 357.986 270.511 356.885L372.398 292.154C374.133 291.053 375.133 289.024 374.663 287.592C374.193 286.16 372.373 285.908 370.71 287.008Z" fill="#455A64"/>
<path d="M376.073 302.193L274.198 366.924C272.463 368.024 271.511 370.014 272.089 371.366C272.668 372.719 274.5 372.931 276.259 371.831L378.146 307.099C379.881 305.999 380.809 304.01 380.231 302.657C379.652 301.304 377.809 301.105 376.073 302.193Z" fill="#455A64"/>
<path d="M382.762 316.662L280.875 381.393C279.14 382.493 278.284 384.43 278.971 385.716C279.658 387.002 281.623 387.135 283.358 386.034L385.173 321.303C386.896 320.216 387.727 318.293 387.041 317.006C386.354 315.72 384.449 315.561 382.762 316.662Z" fill="#455A64"/>
<path d="M390.56 330.348L288.685 395.066C286.949 396.166 286.178 398.063 286.962 399.27C287.745 400.476 289.806 400.596 291.541 399.482L393.416 334.751C395.151 333.65 395.899 331.78 395.115 330.56C394.332 329.34 392.295 329.247 390.56 330.348Z" fill="#455A64"/>
<path d="M399.454 343.357L297.567 408.075C295.844 409.176 295.157 411.019 296.024 412.173C296.892 413.327 299.025 413.38 300.761 412.279L402.647 347.522C404.371 346.421 405.058 344.604 404.166 343.45C403.274 342.296 401.189 342.217 399.454 343.357Z" fill="#455A64"/>
<path d="M409.276 355.744L307.426 420.461C305.69 421.562 305.015 423.366 306.028 424.44C307.04 425.514 309.185 425.541 310.909 424.44L412.796 359.709C414.531 358.608 415.134 356.831 414.169 355.73C413.205 354.63 411.036 354.656 409.276 355.744Z" fill="#455A64"/>
<path d="M420.123 367.587L318.236 432.305C316.513 433.406 315.946 435.169 317.031 436.217C318.116 437.265 320.333 437.225 322.069 436.124L423.871 371.393C425.594 370.292 426.137 368.568 425.076 367.507C424.016 366.446 421.81 366.486 420.123 367.587Z" fill="#455A64"/>
<path d="M300.881 238.032L252.818 268.534C253.349 287.697 255.337 315.335 262.617 343.172L310.692 312.67C303.4 284.833 301.412 257.182 300.881 238.032Z" fill="#02897A"/>
<path opacity="0.8" d="M300.881 238.032L252.818 268.534C253.349 287.697 255.337 315.335 262.617 343.172L310.692 312.67C303.4 284.833 301.412 257.182 300.881 238.032Z" fill="#11B5E4"/>
<path d="M272.415 264.317C272.48 263.08 272.305 261.842 271.902 260.685C271.498 259.528 270.876 258.478 270.077 257.606L252.818 268.56C252.963 273.626 253.204 279.289 253.626 285.39C255.871 285.674 258.142 285.212 260.146 284.064C266.931 280.642 272.415 271.77 272.415 264.317Z" fill="#02897A"/>
<path opacity="0.6" d="M272.415 264.317C272.48 263.08 272.305 261.842 271.902 260.685C271.498 259.528 270.876 258.478 270.077 257.606L252.818 268.56C252.963 273.626 253.204 279.289 253.626 285.39C255.871 285.674 258.142 285.212 260.146 284.064C266.931 280.642 272.415 271.77 272.415 264.317Z" fill="white"/>
<path d="M306.606 294.369C303.4 289.926 296.88 276.2 294.096 270.219C293.987 269.982 293.815 269.787 293.604 269.659C293.393 269.531 293.152 269.476 292.912 269.5C292.672 269.524 292.444 269.627 292.257 269.795C292.071 269.964 291.935 270.19 291.867 270.444C288.855 281.773 287.106 293.463 286.66 305.256C282.646 301.75 279.196 297.527 276.452 292.764C276.335 292.579 276.173 292.435 275.984 292.349C275.795 292.263 275.588 292.238 275.386 292.277C275.185 292.316 274.998 292.417 274.847 292.569C274.697 292.721 274.589 292.918 274.536 293.135C269.281 315.402 271.921 337.31 271.921 337.31L310.692 312.67C309.077 306.516 307.739 300.389 306.606 294.369Z" fill="#02897A"/>
<path opacity="0.6" d="M306.606 294.369C303.4 289.926 296.88 276.2 294.096 270.219C293.987 269.982 293.815 269.787 293.604 269.659C293.393 269.531 293.152 269.476 292.912 269.5C292.672 269.524 292.444 269.627 292.257 269.795C292.071 269.964 291.935 270.19 291.867 270.444C288.855 281.773 287.106 293.463 286.66 305.256C282.646 301.75 279.196 297.527 276.452 292.764C276.335 292.579 276.173 292.435 275.984 292.349C275.795 292.263 275.588 292.238 275.386 292.277C275.185 292.316 274.998 292.417 274.847 292.569C274.697 292.721 274.589 292.918 274.536 293.135C269.281 315.402 271.921 337.31 271.921 337.31L310.692 312.67C309.077 306.516 307.739 300.389 306.606 294.369Z" fill="white"/>
</svg>
