<svg width="542" height="452" viewBox="0 0 542 452" fill="none" xmlns="http://www.w3.org/2000/svg">
<path d="M101.192 402.152C201.971 467.812 365.431 467.812 466.21 402.152C566.99 336.492 566.99 230.049 466.21 164.403C365.431 98.7557 201.971 98.7422 101.192 164.403C0.412458 230.063 0.375589 336.505 101.192 402.152Z" fill="#FAFAFA"/>
<path d="M495.289 159.59C495.842 151.971 501.164 138.982 509.042 129.763C516.92 120.544 529.53 116.043 537.309 119.771C544.56 123.255 542.963 133.966 533.401 140.297C523.839 146.629 509.607 154.411 504.728 166.41L495.289 180.808V159.59Z" fill="#02897A"/>
<path opacity="0.2" d="M495.289 159.59C495.842 151.971 501.164 138.982 509.042 129.763C516.92 120.544 529.53 116.043 537.309 119.771C544.56 123.255 542.963 133.966 533.401 140.297C523.839 146.629 509.607 154.411 504.728 166.41L495.289 180.808V159.59Z" fill="black"/>
<path d="M534.298 123.296C525.265 125.194 498.792 143.999 495.326 172.389" stroke="white" stroke-miterlimit="10" stroke-linecap="round"/>
<path d="M496.358 193.797C497.747 189.73 503.794 182.178 512.495 178.477C521.196 174.775 527.759 171.467 530.93 165.502C534.101 159.536 528.583 153.679 519.795 154.1C511.008 154.52 496.37 164.675 495.338 180.809L496.358 193.797Z" fill="#02897A"/>
<path d="M524.269 158.926C516.674 159.753 498.214 172.104 495.731 185.933" stroke="white" stroke-miterlimit="10" stroke-linecap="round"/>
<path d="M42.3957 232.518C42.0202 221.746 39.8496 211.144 35.9926 201.24C29.5156 184.306 16.4143 175.344 9.43347 174.124C2.45265 172.904 -4.76169 182.259 4.12411 193.376C13.0099 204.494 30.0441 219.38 34.9356 241.9L42.9365 257.274L42.3957 232.518Z" fill="#02897A"/>
<path opacity="0.2" d="M42.3957 232.518C42.0202 221.746 39.8496 211.144 35.9926 201.24C29.5156 184.306 16.4143 175.344 9.43347 174.124C2.45265 172.904 -4.76169 182.259 4.12411 193.376C13.0099 204.494 30.0441 219.38 34.9356 241.9L42.9365 257.274L42.3957 232.518Z" fill="black"/>
<path d="M9.43359 179.29C23.7639 188.699 40.368 213.387 42.6908 246.197" stroke="white" stroke-linecap="round" stroke-linejoin="round"/>
<path d="M41.3019 273.041C39.3232 264.297 34.149 255.769 23.813 247.2C13.4769 238.632 -0.337232 231.27 0.793465 222.525C1.92416 213.78 12.3954 214.39 20.0645 218.254C27.7335 222.118 41.0315 238.022 42.9365 257.247L41.3019 273.041Z" fill="#02897A"/>
<path d="M8.04468 219.787C17.9997 222.499 39.3601 244.056 42.4572 262.413" stroke="white" stroke-linecap="round" stroke-linejoin="round"/>
<path d="M44.1287 278.437C43.303 277.844 42.6163 277.043 42.125 276.1C41.6337 275.158 41.3517 274.1 41.302 273.014V77.3075C41.3536 76.2221 41.6365 75.1654 42.1276 74.2231C42.6188 73.2809 43.3043 72.4796 44.1287 71.8844L107.509 31.5228C108.329 30.9585 109.272 30.651 110.238 30.6331C111.204 30.6152 112.156 30.8877 112.992 31.4214C113.828 31.9551 114.517 32.7298 114.984 33.6624C115.452 34.5951 115.68 35.6505 115.645 36.7155V49.7852C115.645 51.7782 116.874 52.5917 118.484 51.5884L197.793 1.0856C198.612 0.522027 199.554 0.214592 200.518 0.19619C201.483 0.177788 202.434 0.44911 203.27 0.981128C204.106 1.51314 204.795 2.28583 205.263 3.21651C205.732 4.14719 205.962 5.20082 205.929 6.26468V307.085L147.477 344.288L44.1287 278.437Z" fill="#263238"/>
<path d="M203.274 0.990785C202.418 0.530162 201.475 0.299846 200.522 0.318698C199.569 0.33755 198.634 0.605037 197.793 1.09925L118.484 51.602C116.911 52.6053 115.645 51.7918 115.645 49.7988V36.7291C115.68 35.6641 115.452 34.6087 114.985 33.6761C114.517 32.7434 113.828 31.9687 112.992 31.435C112.156 30.9014 111.204 30.6289 110.238 30.6467C109.272 30.6646 108.329 30.9722 107.509 31.5365L44.1288 71.898C43.2959 72.4798 42.6074 73.2812 42.1255 74.23L78.4799 97.3867L205.929 16.1891V6.27833C205.894 5.22889 205.636 4.20327 205.174 3.28462C204.713 2.36597 204.062 1.58012 203.274 0.990785Z" fill="#455A64"/>
<path d="M203.102 4.47511L118.484 58.3673C116.911 59.3706 115.645 58.5571 115.645 56.5641V36.7291C115.645 34.7361 114.416 33.9226 112.819 34.9259L49.4381 75.2874C48.613 75.8819 47.9269 76.6829 47.4356 77.6254C46.9444 78.5678 46.662 79.6249 46.6113 80.7106V269.72C46.6614 270.807 46.9449 271.866 47.4385 272.809C47.9321 273.751 48.6216 274.552 49.4504 275.143L152.823 340.979L205.929 307.166V6.2783C205.929 4.2853 204.663 3.48539 203.102 4.47511Z" fill="#37474F"/>
<path d="M47.447 272.73C47.9215 273.685 48.6116 274.488 49.4503 275.062L152.823 340.898L205.929 307.085V171.792L47.447 272.73Z" fill="#263238"/>
<path d="M60.278 315.816L59.5037 315.328C58.8435 314.855 58.2936 314.216 57.8986 313.465C57.5036 312.714 57.2745 311.87 57.23 311.003V127.363C57.2716 126.495 57.4994 125.65 57.8947 124.898C58.29 124.146 58.8414 123.509 59.5037 123.038L230.214 14.3044C230.917 13.9103 231.694 13.7048 232.482 13.7048C233.27 13.7048 234.047 13.9103 234.749 14.3044L235.524 14.806C236.186 15.2769 236.737 15.9146 237.133 16.6664C237.528 17.4183 237.756 18.263 237.797 19.1309V202.731C237.753 203.598 237.524 204.441 237.129 205.193C236.734 205.944 236.184 206.582 235.524 207.056L64.813 315.816C64.1105 316.21 63.3336 316.416 62.5455 316.416C61.7574 316.416 60.9804 316.21 60.278 315.816Z" fill="#F5F5F5"/>
<path d="M67.8487 131.2L57.8937 124.855C57.4877 125.603 57.2595 126.452 57.23 127.323V310.963C57.2745 311.83 57.5036 312.673 57.8986 313.425C58.2936 314.176 58.8435 314.814 59.5037 315.288L60.278 315.776C60.9804 316.17 61.7574 316.375 62.5455 316.375C63.3336 316.375 64.1105 316.17 64.813 315.776L67.8487 313.837V131.2Z" fill="#E0E0E0"/>
<path d="M62.5518 314.338V130.698C62.594 129.832 62.8208 128.989 63.2137 128.237C63.6066 127.486 64.1546 126.847 64.8131 126.373L235.524 17.6397C236.753 16.8533 237.797 17.4905 237.797 19.0904V202.731C237.753 203.598 237.524 204.441 237.129 205.193C236.734 205.944 236.184 206.582 235.524 207.056L64.8131 315.816C63.5595 316.575 62.5518 315.938 62.5518 314.338Z" fill="#EBEBEB"/>
<path d="M75.9971 132.786L224.34 38.3153C225.901 37.312 227.166 38.1255 227.166 40.1185V181.716C227.117 182.802 226.835 183.859 226.343 184.802C225.852 185.745 225.165 186.546 224.34 187.139L75.9971 281.596C74.4363 282.6 73.1704 281.786 73.1704 279.793V138.209C73.222 137.124 73.5049 136.067 73.996 135.125C74.4872 134.182 75.1727 133.381 75.9971 132.786Z" fill="white"/>
<path d="M100.516 125.722C109.758 119.838 117.243 124.611 117.243 136.379C117.243 148.147 109.758 162.451 100.516 168.335C91.2738 174.219 83.7891 169.46 83.7891 157.692C83.7891 145.924 91.2738 131.607 100.516 125.722Z" fill="#FFB900"/>
<path d="M116.014 168.402C116.581 167.236 117.391 166.234 118.376 165.478C119.362 164.723 120.495 164.235 121.684 164.056C122.873 163.876 124.084 164.009 125.217 164.444C126.351 164.879 127.375 165.603 128.206 166.558L147.477 188.698L184.102 89.5773C184.639 88.1239 185.535 86.866 186.689 85.9464C187.842 85.0268 189.206 84.4824 190.625 84.3751C192.045 84.2678 193.463 84.6018 194.72 85.3393C195.976 86.0767 197.019 87.188 197.731 88.5469L227.142 144.73V181.716C227.092 182.802 226.81 183.86 226.319 184.802C225.828 185.745 225.141 186.546 224.315 187.139L75.9971 281.596C74.4363 282.6 73.1704 281.786 73.1704 279.793V256.338L116.014 168.402Z" fill="#FFB900"/>
<path d="M92.171 336.153L91.3844 335.652C90.7259 335.177 90.1779 334.539 89.785 333.787C89.3921 333.036 89.1653 332.193 89.123 331.327V147.619C89.1653 146.752 89.3921 145.909 89.785 145.158C90.1779 144.406 90.7259 143.768 91.3844 143.294L262.107 34.5736C262.806 34.1743 263.582 33.9658 264.369 33.9658C265.156 33.9658 265.931 34.1743 266.63 34.5736L267.417 35.0617C268.075 35.5358 268.623 36.1745 269.016 36.9259C269.409 37.6774 269.636 38.5204 269.678 39.3867V223.027C269.643 223.895 269.419 224.741 269.025 225.494C268.632 226.246 268.08 226.884 267.417 227.352L96.6692 336.153C95.9735 336.548 95.2025 336.754 94.4201 336.754C93.6378 336.754 92.8667 336.548 92.171 336.153Z" fill="#F5F5F5"/>
<path d="M99.7174 151.51L89.7623 145.165C89.3579 145.908 89.1296 146.752 89.0986 147.619V331.259C89.1409 332.125 89.3676 332.968 89.7605 333.72C90.1535 334.471 90.7014 335.11 91.36 335.584L92.1466 336.085C92.8454 336.485 93.621 336.693 94.408 336.693C95.195 336.693 95.9706 336.485 96.6694 336.085L99.7174 334.147V151.51Z" fill="#E0E0E0"/>
<path d="M94.4077 334.648V151.008C94.4509 150.142 94.6781 149.299 95.0709 148.548C95.4637 147.797 96.0112 147.158 96.6691 146.683L267.392 37.9494C268.621 37.1495 269.653 37.8003 269.653 39.3865V223.027C269.618 223.895 269.394 224.741 269.001 225.493C268.607 226.246 268.055 226.883 267.392 227.352L96.6691 336.153C95.4278 336.885 94.4077 336.234 94.4077 334.648Z" fill="#EBEBEB"/>
<path d="M107.866 153.123L256.208 58.6389C257.769 57.6492 259.035 58.4627 259.035 60.4421V202.013C258.984 203.098 258.702 204.155 258.211 205.098C257.719 206.04 257.033 206.841 256.208 207.436L107.866 301.92C106.292 302.91 105.027 302.11 105.027 300.117V158.546C105.078 157.459 105.362 156.401 105.855 155.458C106.349 154.516 107.038 153.715 107.866 153.123Z" fill="white"/>
<path d="M132.385 146.032C141.615 140.148 149.112 144.92 149.112 156.688C149.112 168.456 141.615 182.76 132.385 188.644C123.155 194.528 115.658 189.756 115.658 177.987C115.658 166.219 123.142 151.916 132.385 146.032Z" fill="#11B5E4"/>
<path d="M147.882 188.712C148.448 187.546 149.257 186.544 150.241 185.788C151.225 185.033 152.358 184.545 153.546 184.365C154.734 184.186 155.944 184.319 157.077 184.754C158.209 185.189 159.232 185.913 160.062 186.868L179.431 209.008L216.044 109.887C216.58 108.43 217.476 107.169 218.631 106.247C219.785 105.325 221.151 104.779 222.573 104.671C223.995 104.564 225.416 104.899 226.673 105.639C227.931 106.379 228.975 107.494 229.686 108.857L259.084 165.04V202.012C259.033 203.098 258.751 204.155 258.26 205.098C257.768 206.04 257.082 206.841 256.257 207.436L107.915 301.92C106.342 302.91 105.076 302.11 105.076 300.117V276.662L147.882 188.712Z" fill="#11B5E4"/>
<path d="M124.002 356.367L123.228 355.879C122.57 355.405 122.022 354.766 121.629 354.015C121.236 353.263 121.009 352.42 120.967 351.554V167.914C121.008 167.046 121.236 166.201 121.632 165.449C122.027 164.697 122.578 164.06 123.24 163.589L293.951 54.8552C294.654 54.4611 295.431 54.2556 296.219 54.2556C297.007 54.2556 297.784 54.4611 298.486 54.8552L299.26 55.3568C299.923 55.8277 300.474 56.4653 300.869 57.2172C301.265 57.9691 301.493 58.8138 301.534 59.6817V243.322C301.49 244.189 301.261 245.033 300.866 245.784C300.471 246.535 299.921 247.174 299.26 247.647L128.55 356.367C127.846 356.763 127.067 356.97 126.276 356.97C125.486 356.97 124.707 356.763 124.002 356.367Z" fill="#F5F5F5"/>
<path d="M131.586 171.792L121.668 165.447C121.262 166.195 121.033 167.044 121.004 167.915V351.555C121.046 352.421 121.273 353.264 121.666 354.016C122.059 354.767 122.607 355.406 123.265 355.88L124.04 356.368C124.742 356.762 125.519 356.968 126.307 356.968C127.095 356.968 127.872 356.762 128.575 356.368L131.623 354.429L131.586 171.792Z" fill="#E0E0E0"/>
<path d="M126.276 354.931V171.29C126.319 170.424 126.545 169.581 126.938 168.83C127.331 168.078 127.879 167.44 128.538 166.966L299.248 58.2185C300.477 57.4322 301.522 58.0694 301.522 59.6692V243.323C301.478 244.19 301.248 245.034 300.853 245.785C300.458 246.536 299.909 247.175 299.248 247.648L128.538 356.368C127.284 357.168 126.276 356.49 126.276 354.931Z" fill="#EBEBEB"/>
<path d="M139.722 173.365L288.064 78.8941C289.625 77.8909 290.891 78.7043 290.891 80.6973V222.268C290.84 223.353 290.558 224.411 290.067 225.353C289.575 226.295 288.889 227.096 288.064 227.691L139.722 322.189C138.161 323.192 136.895 322.379 136.895 320.386V178.774C136.949 177.691 137.232 176.637 137.723 175.698C138.214 174.758 138.899 173.959 139.722 173.365Z" fill="white"/>
<path d="M164.241 166.315C173.483 160.43 180.968 165.203 180.968 176.971C180.968 188.739 173.483 203.043 164.241 208.927C154.998 214.811 147.477 210.066 147.477 198.284C147.477 186.502 154.998 172.199 164.241 166.315Z" fill="#F03E3D"/>
<path d="M179.739 208.994C180.306 207.828 181.115 206.826 182.101 206.07C183.086 205.315 184.22 204.827 185.409 204.648C186.598 204.468 187.808 204.601 188.942 205.036C190.075 205.471 191.099 206.195 191.93 207.151L211.238 229.29L247.863 130.169C248.401 128.716 249.297 127.458 250.45 126.538C251.603 125.619 252.967 125.074 254.387 124.967C255.806 124.86 257.225 125.194 258.481 125.931C259.737 126.669 260.781 127.78 261.493 129.139L290.903 185.322V222.267C290.848 223.354 290.563 224.41 290.07 225.352C289.577 226.294 288.89 227.095 288.064 227.691L139.722 322.188C138.161 323.192 136.895 322.378 136.895 320.385V296.93L179.739 208.994Z" fill="#F03E3D"/>
<path d="M152.823 340.898L168.751 330.757V351.053L152.823 340.898Z" fill="#263238"/>
<path d="M168.751 199.07V347.447C168.751 349.44 167.522 350.24 165.924 349.25L152.823 340.898L147.477 344.288L171.197 359.391C172.074 359.886 173.045 360.144 174.03 360.144C175.015 360.144 175.986 359.886 176.863 359.391L341.17 254.806C341.997 254.213 342.685 253.412 343.178 252.47C343.671 251.527 343.956 250.47 344.009 249.383V94.2279C344.041 93.1625 343.811 92.1075 343.342 91.1756C342.873 90.2436 342.183 89.4697 341.346 88.9365C340.51 88.4033 339.557 88.1308 338.591 88.1482C337.625 88.1656 336.681 88.4722 335.861 89.0353L171.59 193.661C170.764 194.252 170.076 195.05 169.582 195.99C169.089 196.93 168.804 197.986 168.751 199.07Z" fill="#263238"/>
<path d="M179.431 202.229L344.12 97.3869V94.2279C344.152 93.1625 343.921 92.1075 343.452 91.1756C342.983 90.2436 342.294 89.4697 341.457 88.9365C340.62 88.4033 339.668 88.1308 338.702 88.1482C337.736 88.1656 336.792 88.4722 335.971 89.0353L171.59 193.661C170.751 194.235 170.061 195.038 169.587 195.993L179.431 202.229Z" fill="#455A64"/>
<path d="M341.17 92.4242L176.9 197.05C176.073 197.643 175.385 198.444 174.892 199.386C174.398 200.329 174.114 201.386 174.061 202.473V357.587C174.061 359.58 175.29 360.394 176.9 359.391L341.17 254.806C341.997 254.212 342.685 253.412 343.178 252.469C343.671 251.527 343.956 250.469 344.009 249.383V94.2274C344.009 92.2344 342.731 91.4209 341.17 92.4242Z" fill="#37474F"/>
<path d="M217.801 293.134C217.487 293.139 217.177 293.05 216.904 292.877C216.577 292.639 216.314 292.308 216.143 291.919C215.972 291.53 215.9 291.098 215.933 290.667V215.258C215.977 214.274 216.232 213.315 216.679 212.461C217.126 211.608 217.751 210.884 218.502 210.35L298.953 159.116C299.265 158.845 299.642 158.683 300.038 158.652C300.433 158.621 300.828 158.721 301.171 158.94C301.514 159.159 301.789 159.487 301.962 159.881C302.134 160.275 302.195 160.717 302.137 161.149V236.558C302.093 237.542 301.838 238.501 301.391 239.355C300.944 240.208 300.319 240.932 299.568 241.466L219.116 292.768C218.714 293.014 218.261 293.14 217.801 293.134ZM300.269 160.038C300.018 160.05 299.775 160.139 299.568 160.295L219.116 211.516C218.552 211.933 218.083 212.487 217.744 213.136C217.405 213.785 217.206 214.511 217.162 215.258V290.667C217.14 290.858 217.161 291.052 217.223 291.231C217.285 291.411 217.387 291.571 217.519 291.697C217.683 291.763 217.859 291.781 218.031 291.751C218.203 291.72 218.365 291.641 218.502 291.521L298.953 240.286C299.518 239.873 299.988 239.322 300.327 238.675C300.666 238.028 300.865 237.303 300.908 236.558V161.149C300.931 160.958 300.911 160.764 300.848 160.584C300.786 160.404 300.684 160.244 300.551 160.119C300.466 160.064 300.368 160.035 300.269 160.038Z" fill="#FAFAFA"/>
<path d="M230.767 228.192C230.066 228.2 229.375 228.004 228.764 227.623C228.005 227.048 227.399 226.26 227.01 225.339C226.621 224.419 226.463 223.4 226.552 222.389C226.683 219.785 227.368 217.251 228.551 214.993C229.734 212.734 231.381 210.814 233.361 209.388C234.079 208.743 234.959 208.355 235.882 208.275C236.806 208.196 237.729 208.428 238.53 208.942C239.331 209.456 239.971 210.226 240.365 211.151C240.758 212.076 240.888 213.111 240.735 214.119C240.606 216.724 239.923 219.259 238.74 221.518C237.557 223.777 235.908 225.697 233.926 227.121C232.973 227.769 231.886 228.138 230.767 228.192ZM236.568 209.672C235.648 209.717 234.755 210.026 233.975 210.567C232.182 211.868 230.691 213.616 229.624 215.669C228.556 217.723 227.942 220.025 227.83 222.389C227.667 223.165 227.735 223.978 228.022 224.708C228.31 225.438 228.803 226.047 229.428 226.445C230.053 226.843 230.777 227.008 231.494 226.918C232.211 226.827 232.883 226.485 233.41 225.942C235.202 224.64 236.692 222.892 237.76 220.838C238.827 218.785 239.442 216.483 239.555 214.119C239.639 213.346 239.536 212.562 239.255 211.847C238.975 211.132 238.527 210.513 237.957 210.052C237.535 209.786 237.054 209.655 236.568 209.672Z" fill="#FAFAFA"/>
<path d="M216.548 287.467C216.459 287.446 216.375 287.404 216.302 287.345C216.23 287.305 216.167 287.249 216.115 287.182C216.062 287.114 216.023 287.035 215.999 286.951C215.975 286.866 215.967 286.777 215.974 286.689C215.982 286.6 216.006 286.515 216.044 286.437L239.862 234.849C240.221 234.069 240.74 233.392 241.379 232.874C242.018 232.355 242.758 232.009 243.54 231.864C244.322 231.719 245.124 231.779 245.881 232.038C246.639 232.298 247.33 232.75 247.9 233.358L271.448 258.358C271.505 258.42 271.551 258.494 271.582 258.576C271.613 258.657 271.629 258.744 271.629 258.833C271.629 258.921 271.613 259.009 271.582 259.09C271.551 259.172 271.505 259.246 271.448 259.307C271.391 259.371 271.323 259.421 271.248 259.456C271.173 259.49 271.093 259.508 271.012 259.508C270.931 259.508 270.85 259.49 270.775 259.456C270.701 259.421 270.633 259.371 270.576 259.307L247.028 234.375C246.595 233.917 246.072 233.578 245.499 233.383C244.926 233.188 244.321 233.144 243.73 233.253C243.139 233.363 242.579 233.623 242.096 234.013C241.612 234.403 241.218 234.912 240.944 235.5L217.125 287.101C217.07 287.216 216.987 287.311 216.884 287.376C216.782 287.44 216.666 287.472 216.548 287.467Z" fill="#FAFAFA"/>
<path d="M259.035 246.875C258.954 246.894 258.87 246.894 258.789 246.875C258.642 246.803 258.526 246.671 258.466 246.506C258.407 246.341 258.408 246.157 258.47 245.994L276.905 198.975C277.234 198.121 277.757 197.374 278.423 196.806C279.089 196.239 279.876 195.869 280.709 195.733C281.541 195.597 282.391 195.699 283.178 196.029C283.965 196.359 284.661 196.907 285.201 197.619L301.965 219.976C302.017 220.043 302.057 220.121 302.082 220.206C302.107 220.29 302.116 220.379 302.109 220.468C302.103 220.556 302.08 220.642 302.042 220.721C302.005 220.799 301.953 220.869 301.891 220.925C301.778 221.022 301.639 221.074 301.495 221.071C301.352 221.069 301.214 221.013 301.104 220.912L284.34 198.555C283.939 198.017 283.418 197.602 282.829 197.35C282.24 197.098 281.602 197.017 280.977 197.115C280.351 197.213 279.759 197.486 279.257 197.909C278.755 198.333 278.36 198.891 278.109 199.531L259.674 246.536C259.612 246.658 259.518 246.757 259.403 246.817C259.289 246.878 259.16 246.898 259.035 246.875Z" fill="#FAFAFA"/>
<path d="M319.367 126.82C315.569 126.82 313.025 124.312 313.025 120.584L313.357 97.0747C313.357 90.6618 313.357 80.9273 319.846 76.738C321.187 75.7986 322.733 75.2747 324.32 75.2211C325.908 75.1676 327.479 75.5864 328.87 76.4337C330.26 77.281 331.418 78.5255 332.222 80.0366C333.026 81.5476 333.446 83.2696 333.439 85.0218C333.439 86.9063 333.378 89.2112 333.28 91.882C333.273 92.1503 333.218 92.4145 333.118 92.659C333.018 92.9034 332.874 93.1232 332.695 93.3052C332.516 93.4872 332.306 93.6278 332.077 93.7187C331.848 93.8096 331.605 93.849 331.362 93.8344C331.12 93.8222 330.883 93.7574 330.663 93.6438C330.444 93.5302 330.247 93.3699 330.083 93.1722C329.92 92.9745 329.794 92.7432 329.712 92.4916C329.63 92.2399 329.593 91.9729 329.605 91.7058C329.691 89.1434 329.752 86.825 329.752 85.0218C329.76 83.9828 329.511 82.9612 329.03 82.0677C328.549 81.1741 327.856 80.4426 327.026 79.9524C326.195 79.4622 325.259 79.2321 324.319 79.2868C323.378 79.3416 322.469 79.6791 321.69 80.263C317.401 82.9746 317.044 89.7535 317.044 97.0476L316.712 120.584C316.712 122.346 318.15 122.726 319.367 122.726C321.373 122.673 323.281 121.763 324.689 120.187C326.097 118.611 326.895 116.492 326.913 114.28L326.778 104.992C326.778 104.453 326.972 103.936 327.318 103.554C327.664 103.173 328.133 102.959 328.622 102.959C329.111 102.959 329.579 103.173 329.925 103.554C330.271 103.936 330.465 104.453 330.465 104.992L330.6 114.293C330.61 117.595 329.434 120.768 327.328 123.115C325.223 125.463 322.361 126.795 319.367 126.82Z" fill="#BA68C8"/>
<path d="M347.045 271.319L218.821 352.991C218.161 353.465 217.611 354.103 217.216 354.854C216.821 355.606 216.592 356.449 216.548 357.316V358.306C216.591 359.175 216.82 360.021 217.215 360.775C217.61 361.529 218.16 362.169 218.821 362.645L325.807 430.786C326.51 431.18 327.287 431.386 328.075 431.386C328.863 431.386 329.64 431.18 330.342 430.786L458.566 349.114C459.226 348.641 459.776 348.002 460.171 347.251C460.566 346.5 460.795 345.656 460.84 344.789V343.786C460.795 342.918 460.566 342.075 460.171 341.324C459.776 340.572 459.226 339.934 458.566 339.461L351.58 271.319C350.877 270.925 350.1 270.72 349.312 270.72C348.524 270.72 347.747 270.925 347.045 271.319Z" fill="#455A64"/>
<path d="M216.548 357.316V358.306C216.591 359.175 216.82 360.021 217.215 360.775C217.61 361.528 218.16 362.169 218.821 362.644L325.807 430.786C326.504 431.191 327.282 431.396 328.069 431.382V418.692L221.857 351.066L218.821 353.005C218.163 353.477 217.614 354.113 217.219 354.862C216.824 355.61 216.594 356.451 216.548 357.316Z" fill="#263238"/>
<path d="M218.821 352.991L347.045 271.319C347.747 270.925 348.524 270.719 349.312 270.719C350.1 270.719 350.877 270.925 351.58 271.319L458.566 339.46C458.842 339.559 459.083 339.753 459.254 340.012C459.424 340.271 459.516 340.584 459.516 340.904C459.516 341.225 459.424 341.537 459.254 341.796C459.083 342.056 458.842 342.249 458.566 342.348L330.342 424.02C329.64 424.414 328.863 424.62 328.075 424.62C327.287 424.62 326.51 424.414 325.807 424.02L218.821 355.879C218.545 355.779 218.304 355.586 218.134 355.327C217.963 355.068 217.871 354.755 217.871 354.435C217.871 354.114 217.963 353.802 218.134 353.543C218.304 353.283 218.545 353.09 218.821 352.991Z" fill="#37474F"/>
<path d="M234.737 355.879L317.831 408.754C318.53 409.153 319.305 409.362 320.092 409.362C320.879 409.362 321.655 409.153 322.354 408.754L434.661 337.237C434.938 337.138 435.178 336.944 435.349 336.685C435.52 336.426 435.612 336.113 435.612 335.793C435.612 335.472 435.52 335.16 435.349 334.901C435.178 334.641 434.938 334.448 434.661 334.349L351.568 281.474C350.863 281.086 350.087 280.884 349.3 280.884C348.513 280.884 347.737 281.086 347.032 281.474L234.737 352.991C234.461 353.09 234.22 353.283 234.049 353.543C233.879 353.802 233.787 354.114 233.787 354.435C233.787 354.755 233.879 355.068 234.049 355.327C234.22 355.586 234.461 355.78 234.737 355.879Z" fill="white"/>
<path d="M260.362 344.694C266.225 340.965 275.737 340.965 281.6 344.694C287.462 348.422 287.474 354.482 281.6 358.251C275.725 362.02 266.225 361.98 260.362 358.251C254.5 354.523 254.5 348.435 260.362 344.694Z" fill="#02897A"/>
<path d="M434.674 334.39L410.388 318.92L336.647 311.341C335.75 311.25 334.847 311.413 334.024 311.817C333.201 312.221 332.486 312.851 331.947 313.647C331.408 314.443 331.063 315.378 330.946 316.363C330.828 317.348 330.942 318.35 331.276 319.273L344.009 354.428L303.451 351.879C302.661 351.827 301.869 351.973 301.137 352.307C300.405 352.64 299.75 353.152 299.223 353.805C298.695 354.457 298.309 355.232 298.092 356.073C297.875 356.913 297.833 357.797 297.97 358.658L304.213 400.131L317.88 408.836C318.579 409.235 319.354 409.443 320.141 409.443C320.929 409.443 321.704 409.235 322.403 408.836L434.711 337.318C435 337.226 435.255 337.031 435.434 336.764C435.614 336.496 435.709 336.171 435.704 335.838C435.7 335.506 435.597 335.184 435.411 334.922C435.225 334.66 434.966 334.473 434.674 334.39Z" fill="#02897A"/>
<path d="M434.281 236.056V181.933L498.005 141.355V195.464L434.281 236.056Z" fill="#EBEBEB"/>
<path d="M434.281 181.933L354.616 131.2V185.322L434.281 236.056V181.933Z" fill="#E6E6E6"/>
<path d="M434.281 181.933L499.898 140.134L418.34 88.1809L352.735 129.993L434.281 181.933Z" fill="#F0F0F0"/>
<path d="M434.281 181.933V195.463L499.898 153.678V140.134L434.281 181.933Z" fill="#EBEBEB"/>
<path d="M434.281 195.463L498.005 154.885V157.854L434.281 198.446V195.463Z" fill="#E6E6E6"/>
<path d="M352.735 129.993L434.281 181.933V195.463L352.735 143.524V129.993Z" fill="#EBEBEB"/>
<g style="mix-blend-mode:multiply" opacity="0.5">
<path d="M434.281 195.464L354.616 144.731V147.713L434.281 198.447V195.464Z" fill="#E0E0E0"/>
</g>
<path d="M455.26 190.162L477.026 176.293C477.96 175.696 478.722 176.184 478.722 177.377V191.572C478.691 192.224 478.521 192.858 478.227 193.423C477.932 193.988 477.521 194.469 477.026 194.826L455.26 208.709C454.314 209.306 453.564 208.831 453.564 207.638V193.403C453.591 192.752 453.759 192.118 454.054 191.555C454.349 190.991 454.763 190.513 455.26 190.162Z" fill="#E0E0E0"/>
<path d="M456.649 191.776L475.625 179.683C476.252 179.29 476.768 179.615 476.768 180.401V191.085C476.75 191.521 476.636 191.946 476.437 192.324C476.238 192.702 475.96 193.021 475.625 193.254L456.649 205.348C456.022 205.741 455.518 205.348 455.518 204.615V193.932C455.537 193.499 455.649 193.077 455.846 192.702C456.042 192.327 456.318 192.01 456.649 191.776Z" fill="white"/>
<path d="M434.281 175.141V121.018L498.005 80.4258V134.548L434.281 175.141Z" fill="#EBEBEB"/>
<path d="M434.281 121.018L354.616 70.2849V124.408L434.281 175.141V121.018Z" fill="#E6E6E6"/>
<path d="M434.281 121.018L499.898 79.2055L418.34 27.2656L352.735 69.0643L434.281 121.018Z" fill="#F5F5F5"/>
<path d="M434.281 121.018V134.549L499.898 92.7638V79.2061L434.281 121.018Z" fill="#EBEBEB"/>
<path d="M434.281 134.549L498.005 93.9568V96.9395L434.281 137.518V134.549Z" fill="#E6E6E6"/>
<path d="M352.735 69.0645L434.281 121.018V134.549L352.735 82.6087V69.0645Z" fill="#EBEBEB"/>
<g style="mix-blend-mode:multiply" opacity="0.5">
<path d="M434.281 134.548L354.616 83.8149V86.7841L434.281 137.517V134.548Z" fill="#E0E0E0"/>
</g>
<path d="M455.26 129.248L477.026 115.378C477.96 114.781 478.722 115.269 478.722 116.463V130.658C478.688 131.308 478.517 131.941 478.223 132.506C477.928 133.071 477.519 133.552 477.026 133.911L455.26 147.767C454.314 148.364 453.564 147.876 453.564 146.683V132.488C453.591 131.837 453.759 131.204 454.054 130.64C454.349 130.076 454.763 129.598 455.26 129.248Z" fill="#E0E0E0"/>
<path d="M456.649 130.847L475.625 118.767C476.252 118.374 476.768 118.686 476.768 119.486V130.074C476.744 130.509 476.628 130.932 476.43 131.309C476.231 131.685 475.955 132.005 475.625 132.244L456.649 144.324C456.022 144.73 455.518 144.405 455.518 143.605V132.962C455.542 132.536 455.657 132.123 455.854 131.755C456.05 131.388 456.323 131.077 456.649 130.847Z" fill="white"/>
<path d="M494.564 136.731L434.281 175.141L358.057 126.563L356.189 127.783L434.281 177.35L496.445 137.924L494.564 136.731Z" fill="#E0E0E0"/>
</svg>
